<?xml version="1.0" encoding="iso-8859-1"?>
<!-- Generator: Adobe Illustrator 19.0.0, SVG Export Plug-In . SVG Version: 6.00 Build 0)  -->
<svg version="1.1" id="Capa_1" xmlns="http://www.w3.org/2000/svg" xmlns:xlink="http://www.w3.org/1999/xlink" x="0px" y="0px"
	 viewBox="0 0 512 512" style="enable-background:new 0 0 512 512;" xml:space="preserve">
<rect x="63.625" y="328.14" style="fill:#FEC7B0;" width="80.156" height="176.344"/>
<g>
	<rect x="63.625" y="328.14" style="fill:#FEAA88;" width="24.047" height="176.344"/>
	<rect x="215.922" y="288.062" style="fill:#FEAA88;" width="80.156" height="216.422"/>
</g>
<g>
	<rect x="215.922" y="288.062" style="fill:#FD8E61;" width="24.047" height="216.422"/>
	<rect x="368.219" y="199.89" style="fill:#FD8E61;" width="80.156" height="304.594"/>
</g>
<rect x="368.219" y="199.89" style="fill:#FD7239;" width="24.047" height="304.594"/>
<path style="fill:#55697A;" d="M483.032,11.528c-3.447-3.044-8.039-4.461-12.598-3.89l-64.125,8.016
	c-8.786,1.098-15.017,9.111-13.919,17.896c1.098,8.787,9.12,15.012,17.895,13.919l24.115-3.014
	c-81.562,101.486-181.847,153.215-253.804,179.011c-84.004,30.115-148.888,32.52-149.535,32.541
	c-8.842,0.276-15.791,7.664-15.522,16.509c0.263,8.684,7.385,15.545,16.014,15.545c0.164,0,0.329-0.002,0.494-0.007
	c2.803-0.085,69.667-2.443,158.195-33.987c51.93-18.504,100.589-43.29,144.623-73.671c45.685-31.52,86.434-69.168,121.526-112.168
	v19.442c0,8.853,7.177,16.031,16.031,16.031s16.031-7.178,16.031-16.031V23.547C488.453,18.949,486.48,14.571,483.032,11.528z"/>
<path d="M504.485,496.971H455.89v-297.08c0-4.15-3.364-7.515-7.515-7.515h-80.156c-4.151,0-7.515,3.365-7.515,7.515v297.08h-57.111
	V288.063c0-4.15-3.364-7.515-7.515-7.515h-80.156c-4.151,0-7.515,3.365-7.515,7.515v208.908h-57.111V328.141
	c0-4.15-3.364-7.515-7.515-7.515H63.625c-4.151,0-7.515,3.365-7.515,7.515v168.829H7.515c-4.151,0-7.515,3.365-7.515,7.515
	S3.364,512,7.515,512h496.97c4.151,0,7.515-3.365,7.515-7.515S508.636,496.971,504.485,496.971z M71.139,496.971V335.656h65.127
	v161.315H71.139z M223.436,496.971V295.578h65.127v201.393H223.436z M375.734,496.971V207.406h65.127v289.565H375.734z"/>
<path d="M31.553,295.578c0.238,0,0.477-0.003,0.722-0.011c2.853-0.086,70.874-2.488,160.489-34.42
	c50.378-17.952,97.782-41.783,140.893-70.83c3.442-2.319,4.351-6.99,2.032-10.431c-2.318-3.443-6.988-4.352-10.431-2.033
	c-42.068,28.346-88.343,51.607-137.539,69.137c-87.413,31.147-153.145,33.471-155.894,33.554l-0.272,0.004
	c-4.628,0-8.364-3.627-8.504-8.258c-0.142-4.69,3.558-8.624,8.25-8.771c0.656-0.021,66.654-2.443,151.832-32.978
	c71.359-25.581,173.893-77.814,257.126-181.378c4.144-5.156-0.237-12.985-6.788-12.164l-24.112,3.014
	c-4.18,0.517-8.24-2.222-9.301-6.304c-1.276-4.912,2.156-9.968,7.186-10.598l64.127-8.016c5.007-0.633,9.571,3.414,9.571,8.451
	v64.125c0,4.696-3.82,8.517-8.517,8.517s-8.517-3.82-8.517-8.517V68.23c0-3.071-1.986-5.943-4.858-7.028
	c-2.967-1.121-6.473-0.18-8.479,2.276c-28.067,34.391-60.025,65.511-94.988,92.495c-3.285,2.536-3.894,7.255-1.358,10.541
	c2.536,3.286,7.257,3.893,10.541,1.358c30.455-23.505,58.685-50.066,84.137-79.141c0.556,12.493,10.894,22.487,23.523,22.487
	c12.983,0,23.546-10.563,23.546-23.546V23.547c0-6.75-2.902-13.185-7.963-17.651c-5.065-4.471-11.806-6.554-18.506-5.712
	l-64.125,8.016c-12.73,1.591-22.036,13.54-20.443,26.283c1.609,12.877,13.39,22.054,26.284,20.444l5.232-0.653
	c-78.705,91.256-172.272,138.418-238.39,162.12c-82.441,29.555-146.608,32.083-147.233,32.104
	c-12.963,0.405-23.191,11.282-22.799,24.247C8.415,285.548,18.748,295.578,31.553,295.578z"/>
<g>
</g>
<g>
</g>
<g>
</g>
<g>
</g>
<g>
</g>
<g>
</g>
<g>
</g>
<g>
</g>
<g>
</g>
<g>
</g>
<g>
</g>
<g>
</g>
<g>
</g>
<g>
</g>
<g>
</g>
</svg>
