<?xml version="1.0" encoding="iso-8859-1"?>
<!-- Generator: Adobe Illustrator 19.0.0, SVG Export Plug-In . SVG Version: 6.00 Build 0)  -->
<svg version="1.1" id="Capa_1" xmlns="http://www.w3.org/2000/svg" xmlns:xlink="http://www.w3.org/1999/xlink" x="0px" y="0px"
	 viewBox="0 0 512 512" style="enable-background:new 0 0 512 512;" xml:space="preserve">
<path style="fill:#FFFFFF;" d="M437.262,302.124h-6.371c-2.75,0-5-2.25-5-5V279.43c0-2.75,2.25-5,5-5h10.112V71.216
	c0-2.75-2.25-5-5-5H293.039c-2.75,0-5,2.25-5,5V237.78c10.508,0.705,18.892,9.472,18.892,20.118v146.216h129.072
	c0.437,0,0.854-0.075,1.259-0.182V302.124z"/>
<path style="fill:#48C1E1;" d="M437.262,375.381v-73.257h-6.371c-2.75,0-5-2.25-5-5V279.43c0-2.75,2.25-5,5-5h10.112v-93.333
	H288.039v56.683c10.508,0.705,18.892,9.472,18.892,20.118v117.483L437.262,375.381L437.262,375.381z"/>
<path style="opacity:0.1;enable-background:new    ;" d="M320,399.113V71.216c0-2.75,2.25-5,5-5h-31.961c-2.75,0-5,2.25-5,5V237.78
	c10.508,0.705,18.892,9.472,18.892,20.118v146.216H325C322.25,404.113,320,401.863,320,399.113z"/>
<ellipse style="fill:#F7931E;" cx="380.87" cy="312.12" rx="27.17" ry="27.09"/>
<rect x="130.3" y="208.01" style="fill:#775436;" width="115.68" height="29.697"/>
<rect x="130.3" y="208.01" style="opacity:0.1;enable-background:new    ;" width="31.02" height="29.697"/>
<path style="fill:#368C0E;" d="M114.129,203.013c0,2.75,2.25,5,5,5h138.024c2.75,0,5-2.25,5-5v-34.326c0-2.75-2.25-5-5-5H119.129
	c-2.75,0-5,2.25-5,5V203.013z"/>
<g style="opacity:0.1;">
	<path d="M145.976,203.013v-34.326c0-2.75,2.25-5,5-5h-31.847c-2.75,0-5,2.25-5,5v34.326c0,2.75,2.25,5,5,5h31.847
		C148.226,208.013,145.976,205.763,145.976,203.013z"/>
</g>
<path style="fill:#C6A07D;" d="M286.682,237.71H89.595c-11.135,0-20.248,9.084-20.248,20.187v53.64h65.163c2.75,0,5,2.25,5,5v32.07
	h15.632c5.5,0,10,4.5,10,10v107.9h121.54c11.138,0,20.249-9.085,20.249-20.189V257.897
	C306.931,246.794,297.819,237.71,286.682,237.71z"/>
<g style="opacity:0.1;">
	<path d="M100.416,311.537v-53.64c0-11.104,9.113-20.187,20.248-20.187H89.595c-11.135,0-20.248,9.084-20.248,20.187v53.64H100.416z
		"/>
</g>
<path style="fill:#775436;" d="M165.142,439.59v26.918h121.54c11.138,0,20.249-9.085,20.249-20.189v-6.729H165.142z"/>
<path style="fill:#FFFFFF;" d="M206.23,282.123h100.701v113.054H206.23c-2.23,0-4.052-1.817-4.052-4.038V286.161
	C202.178,283.939,204,282.123,206.23,282.123z"/>
<g style="opacity:0.1;">
	<path d="M223,391.139V286.161c0-2.223,1.822-4.038,4.052-4.038H206.23c-2.23,0-4.052,1.816-4.052,4.038v104.978
		c0,2.221,1.822,4.038,4.052,4.038h20.822C224.822,395.177,223,393.359,223,391.139z"/>
</g>
<path style="fill:#F7931E;" d="M139.51,348.607v-32.07c0-2.75-2.25-5-5-5H38.132c-2.75,0-5,2.25-5,5v32.07H139.51z"/>
<path style="opacity:0.1;enable-background:new    ;" d="M64.622,348.607v-32.07c0-2.75,2.25-5,5-5h-31.49c-2.75,0-5,2.25-5,5v32.07
	H64.622z"/>
<path style="fill:#046699;" d="M165.142,484.898c0,5.5-4.5,10-10,10H17.5c-5.5,0-10-4.5-10-10V358.607c0-5.5,4.5-10,10-10h137.642
	c5.5,0,10,4.5,10,10V484.898z"/>
<g style="opacity:0.1;">
	<path d="M39,484.898V358.607c0-5.5,4.5-10,10-10H17.5c-5.5,0-10,4.5-10,10v126.291c0,5.5,4.5,10,10,10H49
		C43.5,494.898,39,490.398,39,484.898z"/>
</g>
<rect x="7.5" y="384.21" style="fill:#FFC502;" width="157.64" height="69.984"/>
<rect x="7.5" y="384.21" style="fill:#FFFFFF;" width="44.41" height="69.984"/>
<path style="fill:#F7931E;" d="M437.262,302.124v187.774c0,2.75,2.25,5,5,5h45.866c2.75,0,5-2.25,5-5V302.124H437.262z"/>
<polygon style="fill:#FFC502;" points="437.262,451.415 493.128,395.716 493.128,344.328 437.262,400.027 "/>
<path style="opacity:0.1;enable-background:new    ;" d="M458.134,489.898V302.124h-20.872v187.774c0,2.75,2.25,5,5,5h20.872
	C460.384,494.898,458.134,492.648,458.134,489.898z"/>
<path style="fill:#FFFFFF;" d="M504.5,297.124c0,2.75-2.25,5-5,5h-68.609c-2.75,0-5-2.25-5-5V279.43c0-2.75,2.25-5,5-5H499.5
	c2.75,0,5,2.25,5,5V297.124z"/>
<g style="opacity:0.1;">
	<path d="M446.391,297.124V279.43c0-2.75,2.25-5,5-5h-20.5c-2.75,0-5,2.25-5,5v17.694c0,2.75,2.25,5,5,5h20.5
		C448.641,302.124,446.391,299.874,446.391,297.124z"/>
</g>
<g>
	<path style="fill:#FCDB67;" d="M253.824,122.167c0,8.211-6.658,14.868-14.872,14.868h-27.76c-8.214,0-14.872-6.657-14.872-14.868
		l0,0c0-8.211,6.658-14.867,14.872-14.867h27.76C247.166,107.3,253.824,113.956,253.824,122.167L253.824,122.167z"/>
	<path style="fill:#FCDB67;" d="M197.814,60.212c5.807,5.807,5.807,15.221,0,21.025l-19.63,19.625
		c-5.808,5.807-15.224,5.807-21.031,0l0,0c-5.808-5.806-5.808-15.22,0-21.025l19.63-19.625
		C182.589,54.406,192.006,54.406,197.814,60.212L197.814,60.212z"/>
	<path style="fill:#FCDB67;" d="M256.21,62.106c-5.809,5.806-15.225,5.806-21.031,0l-19.631-19.625
		c-5.807-5.805-5.807-15.219,0.001-21.025l0,0c5.808-5.806,15.224-5.806,21.032,0l19.629,19.625
		C262.018,46.886,262.018,56.301,256.21,62.106L256.21,62.106z"/>
</g>
<path d="M346.201,312.123c0,19.074,15.554,34.592,34.672,34.592s34.672-15.518,34.672-34.592s-15.554-34.593-34.672-34.593
	C361.755,277.53,346.201,293.049,346.201,312.123z M400.545,312.123c0,10.803-8.825,19.592-19.672,19.592
	c-10.847,0-19.672-8.789-19.672-19.592c0-10.804,8.825-19.593,19.672-19.593S400.545,301.319,400.545,312.123z"/>
<path d="M354.53,275.83c1.39-1.391,2.189-3.32,2.189-5.3c0-1.971-0.8-3.9-2.189-5.301c-1.4-1.399-3.33-2.199-5.301-2.199
	c-1.979,0-3.91,0.8-5.31,2.199c-1.4,1.391-2.19,3.33-2.19,5.301c0,1.979,0.79,3.909,2.19,5.3c1.399,1.399,3.33,2.2,5.31,2.2
	C351.2,278.03,353.13,277.229,354.53,275.83z"/>
<path d="M325.74,241.84c-1.98,0-3.91,0.8-5.311,2.2c-1.39,1.39-2.2,3.319-2.2,5.3c0,1.97,0.811,3.91,2.2,5.3
	c1.4,1.4,3.33,2.2,5.311,2.2c1.97,0,3.899-0.8,5.3-2.2c1.4-1.39,2.2-3.33,2.2-5.3s-0.801-3.91-2.2-5.3
	C329.64,242.64,327.71,241.84,325.74,241.84z"/>
<path d="M376.399,258.27c0,1.971,0.801,3.9,2.2,5.3c1.391,1.391,3.33,2.2,5.3,2.2c1.98,0,3.91-0.81,5.301-2.2
	c1.399-1.399,2.199-3.329,2.199-5.3c0-1.979-0.8-3.91-2.199-5.309c-1.391-1.4-3.32-2.2-5.301-2.2c-1.97,0-3.909,0.8-5.3,2.2
	C377.2,254.359,376.399,256.29,376.399,258.27z"/>
<path d="M354.819,250.149c1.971,0,3.9-0.8,5.301-2.199c1.399-1.4,2.199-3.33,2.199-5.301c0-1.97-0.8-3.909-2.199-5.3
	c-1.391-1.399-3.33-2.2-5.301-2.2c-1.979,0-3.909,0.801-5.31,2.2c-1.39,1.391-2.19,3.33-2.19,5.3c0,1.971,0.801,3.91,2.19,5.301
	C350.91,249.35,352.84,250.149,354.819,250.149z"/>
<path d="M325.74,208.38c-1.98,0-3.91,0.8-5.311,2.2c-1.39,1.399-2.2,3.33-2.2,5.3c0,1.98,0.811,3.91,2.2,5.31
	c1.4,1.391,3.33,2.19,5.311,2.19c1.97,0,3.899-0.8,5.3-2.19c1.4-1.4,2.2-3.33,2.2-5.31c0-1.97-0.801-3.9-2.2-5.3
	C329.64,209.18,327.71,208.38,325.74,208.38z"/>
<path d="M239.977,332.69h32.395c4.143,0,7.5-3.357,7.5-7.5c0-4.142-3.357-7.5-7.5-7.5h-32.395c-4.142,0-7.5,3.358-7.5,7.5
	C232.477,329.333,235.835,332.69,239.977,332.69z"/>
<path d="M239.977,360.954h32.395c4.143,0,7.5-3.357,7.5-7.5s-3.357-7.5-7.5-7.5h-32.395c-4.142,0-7.5,3.357-7.5,7.5
	S235.835,360.954,239.977,360.954z"/>
<path d="M499.5,266.93h-50.997V71.216c0-6.893-5.607-12.5-12.5-12.5H293.039c-6.893,0-12.5,5.607-12.5,12.5V230.21h-27.06v-14.697
	h3.674c6.893,0,12.5-5.607,12.5-12.5v-34.326c0-6.893-5.607-12.5-12.5-12.5H119.129c-6.893,0-12.5,5.607-12.5,12.5v34.326
	c0,6.893,5.607,12.5,12.5,12.5h3.669v14.697H89.595c-15.301,0-27.748,12.421-27.748,27.687v46.14H38.132
	c-6.893,0-12.5,5.607-12.5,12.5v24.57H17.5c-9.649,0-17.5,7.851-17.5,17.5v126.291c0,9.65,7.851,17.5,17.5,17.5h137.642
	c9.649,0,17.5-7.85,17.5-17.5v-10.891h114.04c15.301,0,27.749-12.421,27.749-27.689v-34.706h115.331v78.285
	c0,6.893,5.607,12.5,12.5,12.5h45.866c6.893,0,12.5-5.607,12.5-12.5V309.566c6.365-0.572,11.372-5.931,11.372-12.442V279.43
	C512,272.537,506.393,266.93,499.5,266.93z M485.628,392.603l-40.866,40.744v-30.206l40.866-40.744V392.603z M444.762,381.959
	v-72.335h40.866v31.591L444.762,381.959z M497,294.624h-63.609V281.93H497V294.624z M433.503,73.716v99.881H420
	c-4.143,0-7.5,3.357-7.5,7.5s3.357,7.5,7.5,7.5h13.503v78.333h-2.612c-6.893,0-12.5,5.607-12.5,12.5v17.694
	c0,6.512,5.006,11.87,11.371,12.442v58.314H314.431V257.897c0-12.177-7.923-22.535-18.892-26.232v-43.068H375
	c4.143,0,7.5-3.357,7.5-7.5s-3.357-7.5-7.5-7.5h-79.461V73.716H433.503z M299.431,387.677h-89.753v-98.054h89.753V387.677z
	 M137.798,215.513H191c4.143,0,7.5-3.357,7.5-7.5s-3.357-7.5-7.5-7.5h-69.371v-29.326h133.024v29.326H231
	c-4.143,0-7.5,3.357-7.5,7.5s3.357,7.5,7.5,7.5h7.48v14.697H137.798V215.513z M76.847,257.897c0-6.996,5.719-12.687,12.748-12.687
	h197.087c7.03,0,12.749,5.691,12.749,12.687v16.725H206.23c-6.37,0-11.552,5.176-11.552,11.538v104.978
	c0,6.362,5.182,11.538,11.552,11.538h93.201v29.413H172.642v-73.482c0-9.649-7.851-17.5-17.5-17.5h-8.132v-24.57
	c0-6.893-5.607-12.5-12.5-12.5H76.847V257.897z M40.632,319.037h91.378v22.07H40.632V319.037z M17.5,356.107h137.642
	c1.355,0,2.5,1.145,2.5,2.5v18.107H137c-4.143,0-7.5,3.357-7.5,7.5s3.357,7.5,7.5,7.5h20.642v54.984H59.415v-54.984H97
	c4.143,0,7.5-3.357,7.5-7.5s-3.357-7.5-7.5-7.5H59.415H15v-18.107C15,357.252,16.145,356.107,17.5,356.107z M15,391.715h29.415
	v54.984H15V391.715z M155.142,487.398H17.5c-1.355,0-2.5-1.145-2.5-2.5v-23.199h44.415h98.227v23.199
	C157.642,486.254,156.497,487.398,155.142,487.398z M286.682,459.008h-114.04V447.09h126.75
	C298.988,453.727,293.45,459.008,286.682,459.008z M314.431,396.613v-13.732h115.331v13.732H314.431z M444.762,487.398v-32.87
	l40.866-40.744v73.614H444.762z"/>
<path d="M211.192,99.8c-12.336,0-22.372,10.034-22.372,22.367c0,12.334,10.036,22.368,22.372,22.368h27.76
	c12.336,0,22.372-10.034,22.372-22.368c0-12.333-10.036-22.367-22.372-22.367H211.192z M246.324,122.167
	c0,4.063-3.307,7.368-7.372,7.368h-27.76c-4.065,0-7.372-3.306-7.372-7.368s3.307-7.367,7.372-7.367h27.76
	C243.018,114.8,246.324,118.104,246.324,122.167z"/>
<path d="M167.668,112.717c5.976,0,11.593-2.326,15.818-6.551l19.63-19.624c4.226-4.225,6.553-9.842,6.553-15.816
	s-2.327-11.592-6.553-15.818c-4.226-4.224-9.844-6.55-15.818-6.55c-5.976,0-11.594,2.326-15.818,6.551l-19.63,19.624
	c-4.226,4.225-6.553,9.842-6.553,15.817s2.327,11.593,6.553,15.816C156.075,110.391,161.692,112.717,167.668,112.717z
	 M162.455,85.141l19.63-19.625c1.392-1.392,3.243-2.158,5.213-2.158s3.821,0.767,5.212,2.158c1.393,1.392,2.159,3.242,2.159,5.21
	s-0.767,3.816-2.158,5.208l-19.63,19.625c-1.393,1.392-3.244,2.158-5.213,2.158s-3.82-0.767-5.213-2.158
	c-1.392-1.392-2.158-3.241-2.158-5.209C160.297,88.382,161.064,86.532,162.455,85.141z"/>
<path d="M229.876,67.41c4.225,4.225,9.842,6.551,15.817,6.551s11.593-2.326,15.819-6.55c4.226-4.225,6.553-9.843,6.553-15.817
	c0-5.976-2.327-11.593-6.553-15.816l-19.63-19.626c-4.226-4.224-9.844-6.55-15.818-6.55c-5.975,0-11.593,2.326-15.818,6.551
	c-4.226,4.225-6.553,9.842-6.553,15.817c-0.001,5.975,2.326,11.592,6.552,15.815L229.876,67.41z M220.852,26.76
	c1.392-1.392,3.243-2.158,5.213-2.158s3.821,0.767,5.214,2.158l19.63,19.626c1.392,1.391,2.157,3.24,2.157,5.208
	s-0.767,3.817-2.157,5.208c-1.394,1.393-3.245,2.159-5.215,2.159c-1.969,0-3.82-0.767-5.212-2.158l-19.631-19.625
	c-1.392-1.392-2.157-3.24-2.157-5.208C218.693,30.002,219.46,28.151,220.852,26.76z"/>
<g>
</g>
<g>
</g>
<g>
</g>
<g>
</g>
<g>
</g>
<g>
</g>
<g>
</g>
<g>
</g>
<g>
</g>
<g>
</g>
<g>
</g>
<g>
</g>
<g>
</g>
<g>
</g>
<g>
</g>
</svg>
