<?xml version="1.0" encoding="iso-8859-1"?>
<!-- Generator: Adobe Illustrator 19.0.0, SVG Export Plug-In . SVG Version: 6.00 Build 0)  -->
<svg version="1.1" id="Layer_1" xmlns="http://www.w3.org/2000/svg" xmlns:xlink="http://www.w3.org/1999/xlink" x="0px" y="0px"
	 viewBox="0 0 512 512" style="enable-background:new 0 0 512 512;" xml:space="preserve">
<path style="fill:#F7B239;" d="M337.156,194.069v25.55h-60.34v219.114h-0.011h-66.657c15.669-19.436,25.043-44.152,25.043-71.068
	c0-62.607-50.763-113.358-113.37-113.358c-3.847,0-7.648,0.192-11.393,0.564v-20.023v-40.779v-40.779V112.51V71.731V30.963h226.728
	v40.768v40.779v40.779V194.069z"/>
<path style="fill:#FFFFFF;" d="M310.15,259.124c-4.674,0-8.46-3.788-8.46-8.46V55.509c0-4.672,3.787-8.46,8.46-8.46
	c4.674,0,8.46,3.788,8.46,8.46v195.154C318.611,255.336,314.824,259.124,310.15,259.124z"/>
<polygon style="fill:#F7B239;" points="503.544,219.619 503.544,464.283 276.816,464.283 276.816,438.733 276.816,219.619 
	337.156,219.619 "/>
<polygon style="fill:#E09B2D;" points="319.118,464.283 319.118,443.203 319.118,398.43 319.118,353.656 319.118,308.883 
	319.118,264.11 319.118,219.348 279.636,219.348 279.636,264.11 279.636,308.883 279.636,353.656 279.636,398.43 279.636,443.203 
	279.636,464.283 "/>
<path style="fill:#FFFFFF;" d="M478.23,449.765c-4.674,0-8.46-3.788-8.46-8.46V246.151c0-4.672,3.787-8.46,8.46-8.46
	s8.46,3.788,8.46,8.46v195.154C486.691,445.977,482.904,449.765,478.23,449.765z"/>
<path style="fill:#E09B2D;" d="M121.821,290.923c41.422,0,74.993,34.361,74.993,76.742c0,42.392-33.571,76.753-74.993,76.753
	c-41.411,0-74.993-34.361-74.993-76.753C46.828,325.284,80.41,290.923,121.821,290.923z"/>
<path style="fill:#CC851D;" d="M121.821,290.923c-3.639,0-7.214,0.28-10.715,0.793c36.341,5.323,64.276,37.292,64.276,75.949
	c0,38.666-27.934,70.637-64.276,75.96c3.501,0.513,7.076,0.793,10.715,0.793c41.422,0,74.993-34.361,74.993-76.753
	C196.814,325.284,163.243,290.923,121.821,290.923z"/>
<path style="fill:#F7B239;" d="M210.148,438.733c-20.768,25.799-52.624,42.302-88.327,42.302
	c-62.607,0-113.358-50.751-113.358-113.37c0-58.76,44.705-107.075,101.965-112.794c3.745-0.372,7.547-0.564,11.393-0.564
	c62.607,0,113.37,50.751,113.37,113.358C235.191,394.581,225.817,419.296,210.148,438.733z M196.814,367.665
	c0-42.381-33.571-76.742-74.993-76.742c-41.411,0-74.993,34.361-74.993,76.742c0,42.392,33.582,76.753,74.993,76.753
	C163.243,444.418,196.814,410.058,196.814,367.665z"/>
<polygon style="fill:#E09B2D;" points="149.91,254.047 149.91,234.848 149.91,194.069 149.91,153.289 149.91,112.51 149.91,71.731 
	149.91,30.963 110.428,30.963 110.428,71.731 110.428,112.51 110.428,153.289 110.428,194.069 110.428,234.848 110.428,254.047 "/>
<g>
	<path style="fill:#333333;" d="M503.54,211.159H345.622V30.966c0-4.672-3.787-8.46-8.46-8.46H110.433
		c-4.674,0-8.46,3.788-8.46,8.46v216.506C44.209,256.979,0,307.255,0,367.67c0,67.175,54.65,121.824,121.824,121.824
		c36.808,0,69.856-16.411,92.213-42.299h54.314v17.086c0,4.672,3.787,8.46,8.46,8.46H503.54c4.674,0,8.46-3.788,8.46-8.46V219.619
		C512,214.945,508.213,211.159,503.54,211.159z M495.079,251.934H285.272v-23.856h209.807V251.934z M285.272,391.187h209.807v23.856
		H285.272L285.272,391.187L285.272,391.187z M285.272,374.267V350.41h209.807v23.856H285.272z M285.272,333.49v-23.856h209.807
		v23.856H285.272z M285.272,292.713v-23.856h209.807v23.856H285.272z M276.811,211.159c-4.674,0-8.46,3.788-8.46,8.46v6.767H118.895
		V202.53h209.806v8.628H276.811z M328.701,104.054H118.894V80.198H328.7v23.856H328.701z M328.701,120.975v23.856H118.894v-23.856
		H328.701z M328.701,161.752v23.856H118.894v-23.856H328.701z M328.701,39.427v23.85H118.894v-23.85H328.701z M118.894,243.307
		H268.35v23.852h-77.77c-19.582-13.437-43.265-21.312-68.756-21.312c-0.979,0-1.956,0.014-2.931,0.037v-2.576H118.894z
		 M243.623,365.638h24.727v23.858h-26.663c1.286-7.083,1.962-14.377,1.962-21.827C243.649,366.991,243.634,366.315,243.623,365.638z
		 M242.172,348.717c-1.295-8.255-3.425-16.236-6.296-23.858h32.474v23.858H242.172z M227.967,307.938
		c-4.895-8.665-10.818-16.674-17.606-23.858h57.99v23.858H227.967z M121.824,472.573c-57.843,0-104.904-47.059-104.904-104.904
		c0-57.843,47.06-104.904,104.904-104.904s104.904,47.059,104.904,104.904S179.668,472.573,121.824,472.573z M226.294,430.276
		c4.494-7.472,8.212-15.461,11.037-23.858h31.02v23.858H226.294z M285.272,455.822v-23.856h209.807v23.856H285.272z"/>
	<path style="fill:#333333;" d="M121.824,282.462c-46.017,0-83.454,38.224-83.454,85.208s37.438,85.208,83.454,85.208
		c46.018,0,83.455-38.224,83.455-85.208S167.842,282.462,121.824,282.462z M121.824,435.957c-36.686,0-66.533-30.633-66.533-68.287
		s29.847-68.287,66.533-68.287c36.687,0,66.534,30.634,66.534,68.287S158.512,435.957,121.824,435.957z"/>
	<path style="fill:#333333;" d="M129.038,329.737c-3.085-1.342-6.678-0.729-9.142,1.566l-16.357,15.229
		c-3.42,3.185-3.611,8.537-0.428,11.957c3.183,3.418,8.537,3.612,11.957,0.426l2.132-1.984v40.915c0,4.672,3.787,8.46,8.46,8.46
		s8.46-3.788,8.46-8.46v-60.351C134.121,334.127,132.126,331.081,129.038,329.737z"/>
</g>
<g>
</g>
<g>
</g>
<g>
</g>
<g>
</g>
<g>
</g>
<g>
</g>
<g>
</g>
<g>
</g>
<g>
</g>
<g>
</g>
<g>
</g>
<g>
</g>
<g>
</g>
<g>
</g>
<g>
</g>
</svg>
