<?xml version="1.0" encoding="iso-8859-1"?>
<!-- Generator: Adobe Illustrator 19.0.0, SVG Export Plug-In . SVG Version: 6.00 Build 0)  -->
<svg version="1.1" id="Capa_1" xmlns="http://www.w3.org/2000/svg" xmlns:xlink="http://www.w3.org/1999/xlink" x="0px" y="0px"
	 viewBox="0 0 512 512" style="enable-background:new 0 0 512 512;" xml:space="preserve">
<path style="fill:#6B7B8B;" d="M384.25,504.485H55.609c-13.281,0-24.047-10.766-24.047-24.047V31.562
	c0-13.281,10.766-24.047,24.047-24.047H384.25c13.281,0,24.047,10.766,24.047,24.047v448.877
	C408.297,493.719,397.531,504.485,384.25,504.485z"/>
<path style="fill:#55697A;" d="M352.188,480.438V31.562c0-4.427-3.589-8.016-8.016-8.016H32.935
	c-0.887,2.508-1.374,5.204-1.374,8.016v448.877c0,2.811,0.487,5.508,1.374,8.016h311.237
	C348.599,488.454,352.188,484.865,352.188,480.438z M79.656,135.765c13.281,0,24.047,10.766,24.047,24.047
	s-10.766,24.047-24.047,24.047s-24.047-10.766-24.047-24.047S66.375,135.765,79.656,135.765z M79.656,231.953
	c13.281,0,24.047,10.766,24.047,24.047s-10.766,24.047-24.047,24.047S55.609,269.281,55.609,256S66.375,231.953,79.656,231.953z
	 M79.656,328.141c13.281,0,24.047,10.766,24.047,24.047s-10.766,24.047-24.047,24.047s-24.047-10.766-24.047-24.047
	S66.375,328.141,79.656,328.141z"/>
<path style="fill:#FD8E61;" d="M360.204,183.859h-24.047v-80.157h24.047c8.854,0,16.031,7.177,16.031,16.031v48.094
	C376.235,176.682,369.058,183.859,360.204,183.859z"/>
<path style="fill:#FDDD88;" d="M360.204,296.078h-24.047v-80.157h24.047c8.854,0,16.031,7.177,16.031,16.031v48.094
	C376.235,288.901,369.058,296.078,360.204,296.078z"/>
<path style="fill:#76E7EB;" d="M360.204,408.297h-24.047v-80.157h24.047c8.854,0,16.031,7.177,16.031,16.031v48.094
	C376.235,401.12,369.058,408.297,360.204,408.297z"/>
<path style="fill:#F4F6F7;" d="M31.562,39.577v432.845h304.595V39.577H31.562z M79.656,376.235
	c-13.281,0-24.047-10.766-24.047-24.047s10.766-24.047,24.047-24.047s24.047,10.766,24.047,24.047S92.937,376.235,79.656,376.235z
	 M79.656,280.047c-13.281,0-24.047-10.766-24.047-24.047s10.766-24.047,24.047-24.047s24.047,10.766,24.047,24.047
	S92.937,280.047,79.656,280.047z M79.656,183.859c-13.281,0-24.047-10.766-24.047-24.047s10.766-24.047,24.047-24.047
	s24.047,10.766,24.047,24.047S92.937,183.859,79.656,183.859z"/>
<path style="fill:#76E7EB;" d="M464.407,456.391h-8.016c-8.854,0-16.031-7.177-16.031-16.031V99.695
	c0-11.068,8.972-20.039,20.039-20.039l0,0c11.068,0,20.039,8.972,20.039,20.039V440.36
	C480.438,449.214,473.261,456.391,464.407,456.391z"/>
<path style="fill:#FDDD88;" d="M480.438,320.125H440.36V99.695c0-11.068,8.972-20.039,20.039-20.039l0,0
	c11.068,0,20.039,8.972,20.039,20.039V320.125z"/>
<path d="M384.25,0H55.609C38.206,0,24.047,14.159,24.047,31.562v120.736H7.515c-4.15,0-7.515,3.364-7.515,7.515
	s3.365,7.515,7.515,7.515h16.532v81.159H7.515C3.365,248.485,0,251.849,0,256c0,4.151,3.365,7.515,7.515,7.515h16.532v81.159H7.515
	c-4.15,0-7.515,3.364-7.515,7.515s3.365,7.515,7.515,7.515h16.532v120.736c0,17.403,14.159,31.562,31.562,31.562H384.25
	c17.403,0,31.562-14.159,31.562-31.562v-251.99c0-4.151-3.365-7.515-7.515-7.515s-7.515,3.364-7.515,7.515v251.99
	c0,9.117-7.417,16.532-16.532,16.532H55.609c-9.116,0-16.532-7.415-16.532-16.532v-0.501h297.08c4.15,0,7.515-3.364,7.515-7.515
	v-56.611h16.532c12.983,0,23.546-10.563,23.546-23.546v-48.094c0-12.983-10.563-23.546-23.546-23.546h-16.532v-17.033h16.532
	c12.983,0,23.546-10.563,23.546-23.546v-48.094c0-12.983-10.563-23.546-23.546-23.546h-16.532v-17.033h16.532
	c12.983,0,23.546-10.563,23.546-23.546v-48.094c0-12.983-10.563-23.546-23.546-23.546h-16.532V39.577
	c0-4.151-3.365-7.515-7.515-7.515H39.076v-0.501c0-9.117,7.416-16.532,16.532-16.532H384.25c9.116,0,16.532,7.415,16.532,16.532
	v160.312c0,4.151,3.365,7.515,7.515,7.515s7.515-3.364,7.515-7.515V31.562C415.812,14.159,401.653,0,384.25,0z M360.204,335.656
	c4.696,0,8.517,3.82,8.517,8.517v48.094c0,4.696-3.82,8.517-8.517,8.517h-16.532v-65.127H360.204z M360.204,223.436
	c4.696,0,8.517,3.82,8.517,8.517v48.094c0,4.696-3.82,8.517-8.517,8.517h-16.532v-65.127H360.204z M360.204,111.217
	c4.696,0,8.517,3.82,8.517,8.517v48.094c0,4.696-3.82,8.517-8.517,8.517h-16.532v-65.127H360.204z M328.642,47.092v417.816H39.076
	V359.703h9.928c3.381,13.786,15.837,24.047,30.651,24.047c17.403,0,31.562-14.159,31.562-31.562s-14.159-31.562-31.562-31.562
	c-14.814,0-27.269,10.261-30.651,24.047h-9.928v-81.159h9.928c3.381,13.786,15.837,24.047,30.651,24.047
	c17.403,0,31.562-14.159,31.562-31.562s-14.159-31.562-31.562-31.562c-14.814,0-27.269,10.261-30.651,24.047h-9.928v-81.159h9.928
	c3.381,13.786,15.837,24.047,30.651,24.047c17.403,0,31.562-14.159,31.562-31.562S97.059,128.25,79.656,128.25
	c-14.814,0-27.269,10.261-30.651,24.047h-9.928V47.092H328.642z M71.64,344.673h-6.691c2.742-5.344,8.298-9.018,14.707-9.018
	c9.116,0,16.532,7.417,16.532,16.532s-7.416,16.532-16.532,16.532c-6.409,0-11.964-3.673-14.707-9.018h6.691
	c4.15,0,7.515-3.364,7.515-7.515S75.79,344.673,71.64,344.673z M71.64,248.485h-6.691c2.742-5.344,8.298-9.018,14.707-9.018
	c9.116,0,16.532,7.416,16.532,16.532s-7.416,16.532-16.532,16.532c-6.409,0-11.964-3.673-14.707-9.018h6.691
	c4.15,0,7.515-3.364,7.515-7.515C79.155,251.849,75.79,248.485,71.64,248.485z M71.64,152.297h-6.691
	c2.742-5.344,8.298-9.018,14.707-9.018c9.116,0,16.532,7.416,16.532,16.532s-7.416,16.532-16.532,16.532
	c-6.409,0-11.964-3.673-14.707-9.018h6.691c4.15,0,7.515-3.364,7.515-7.515S75.79,152.297,71.64,152.297z"/>
<path d="M151.796,167.327h144.282c4.15,0,7.515-3.364,7.515-7.515s-3.365-7.515-7.515-7.515H151.796
	c-4.15,0-7.515,3.364-7.515,7.515S147.646,167.327,151.796,167.327z"/>
<path d="M151.796,263.515h144.282c4.15,0,7.515-3.364,7.515-7.515c0-4.151-3.365-7.515-7.515-7.515H151.796
	c-4.15,0-7.515,3.364-7.515,7.515C144.282,260.151,147.646,263.515,151.796,263.515z"/>
<path d="M151.796,359.703h144.282c4.15,0,7.515-3.364,7.515-7.515s-3.365-7.515-7.515-7.515H151.796
	c-4.15,0-7.515,3.364-7.515,7.515S147.646,359.703,151.796,359.703z"/>
<path d="M504.485,297.581c-4.15,0-7.515,3.364-7.515,7.515v111.023l-9.018,0.376v-316.8c0-12.588-8.489-23.223-20.039-26.504V47.593
	c0-4.151-3.365-7.515-7.515-7.515c-4.15,0-7.515,3.364-7.515,7.515v25.598c-11.551,3.279-20.039,13.916-20.039,26.504V440.36
	c0,12.983,10.563,23.546,23.546,23.546h8.016c12.983,0,23.546-10.563,23.546-23.546v-8.823l16.845-0.702
	c4.026-0.167,7.202-3.48,7.202-7.508V305.096C512,300.945,508.635,297.581,504.485,297.581z M447.875,99.695
	c0-6.906,5.618-12.524,12.524-12.524s12.524,5.618,12.524,12.524v212.916h-25.049V99.695z M464.407,448.877h-8.016
	c-4.696,0-8.517-3.82-8.517-8.517V327.64h25.049v112.72C472.924,445.056,469.103,448.877,464.407,448.877z"/>
<g>
</g>
<g>
</g>
<g>
</g>
<g>
</g>
<g>
</g>
<g>
</g>
<g>
</g>
<g>
</g>
<g>
</g>
<g>
</g>
<g>
</g>
<g>
</g>
<g>
</g>
<g>
</g>
<g>
</g>
</svg>
