<?xml version="1.0" encoding="iso-8859-1"?>
<!-- Generator: Adobe Illustrator 19.0.0, SVG Export Plug-In . SVG Version: 6.00 Build 0)  -->
<svg version="1.1" id="Capa_1" xmlns="http://www.w3.org/2000/svg" xmlns:xlink="http://www.w3.org/1999/xlink" x="0px" y="0px"
	 viewBox="0 0 511.999 511.999" style="enable-background:new 0 0 511.999 511.999;" xml:space="preserve">
<rect x="206.3" y="407.999" style="fill:#ABBACD;" width="99.4" height="60.47"/>
<rect x="206.3" y="407.999" style="fill:#91A4B6;" width="99.4" height="27.383"/>
<path style="fill:#BAC7D9;" d="M487.934,82.049c9.15,0,16.567,7.417,16.567,16.567v298.199c0,9.15-7.417,16.567-16.567,16.567
	H24.068c-9.15,0-16.567-7.417-16.567-16.567V98.616c0-9.149,7.417-16.567,16.567-16.567
	C24.068,82.049,487.934,82.049,487.934,82.049z"/>
<path style="fill:#A5B5CC;" d="M487.934,82.049h-21.999c9.15,0,16.567,7.417,16.567,16.567v298.199
	c0,9.15-7.417,16.567-16.567,16.567h21.999c9.15,0,16.567-7.417,16.567-16.567V98.616C504.501,89.466,497.084,82.049,487.934,82.049
	z"/>
<circle style="fill:#D7DCF2;" cx="256" cy="380.249" r="12.426"/>
<path style="fill:#474855;" d="M504.501,347.114V98.616c0-9.15-7.417-16.567-16.567-16.567H24.068
	c-9.15,0-16.567,7.417-16.567,16.567v248.498H504.501z"/>
<path style="fill:#3C3C47;" d="M487.934,82.049h-22c9.15,0,16.567,7.417,16.567,16.567v248.498h22V98.616
	C504.501,89.466,497.084,82.049,487.934,82.049z"/>
<path style="fill:#FFFFFF;" d="M32.351,112.899v203.365c0,3.314,2.686,6,6,6h435.301c3.314,0,6-2.686,6-6V112.899
	c0-3.314-2.686-6-6-6H38.351C35.037,106.899,32.351,109.585,32.351,112.899z"/>
<path style="fill:#92D782;" d="M479.649,148.314H32.352v-35.415c0-3.314,2.686-6,6-6h435.3c3.314,0,6,2.687,6,6L479.649,148.314z"/>
<path style="fill:#BAC7D9;" d="M365.968,496.215H146.036c-3.314,0-6-2.686-6-6v-21.133c0-3.314,2.686-6,6-6h219.933
	c3.314,0,6,2.686,6,6v21.133C371.968,493.529,369.282,496.215,365.968,496.215z"/>
<path style="fill:#A5B5CC;" d="M365.968,463.082h-22c3.314,0,6,2.686,6,6v21.133c0,3.314-2.686,6-6,6h22c3.314,0,6-2.686,6-6
	v-21.133C371.968,465.768,369.282,463.082,365.968,463.082z"/>
<path style="fill:#BAC7D9;" d="M173.167,80.369V21.782c0-3.314,2.686-6,6-6h170.234c3.314,0,6,2.686,6,6v60.267L173.167,80.369z"/>
<path style="fill:#A5B5CC;" d="M355.401,65.481h-22v-49.7h16c3.314,0,6,2.686,6,6V65.481z"/>
<path style="fill:#FFFFFF;" d="M156.601,120.106V46.632c0-3.314,2.686-6,6-6h161.95c3.314,0,6,2.686,6,6v73.475L156.601,120.106
	L156.601,120.106z"/>
<path style="fill:#FFC880;" d="M371.968,65.481H305.7l-33.133,41.416H140.033c-9.15,0-16.567,7.417-16.567,16.567v140.818
	c0,9.15,7.417,16.567,16.567,16.567h231.935c9.15,0,16.567-7.417,16.567-16.567V82.048
	C388.535,72.898,381.118,65.481,371.968,65.481z"/>
<path style="fill:#FFAA6E;" d="M371.968,65.481h-15.532h-6.468c9.15,0,16.567,7.417,16.567,16.567v182.234
	c0,9.15-7.417,16.567-16.567,16.567h22c9.15,0,16.567-7.417,16.567-16.567V82.048C388.535,72.898,381.118,65.481,371.968,65.481z"/>
<rect x="156.6" y="222.869" style="fill:#FFFFFF;" width="49.7" height="24.849"/>
<g>
	<path style="fill:#121212;" d="M206.3,215.366h-49.7c-4.142,0-7.5,3.358-7.5,7.5v24.849c0,4.142,3.358,7.5,7.5,7.5h49.7
		c4.143,0,7.5-3.358,7.5-7.5v-24.849C213.8,218.724,210.442,215.366,206.3,215.366z M198.8,240.215h-34.7v-9.849h34.7V240.215z"/>
	<path style="fill:#121212;" d="M487.934,74.549h-93.101c-3.16-9.608-12.213-16.567-22.865-16.567H362.9v-42.2
		c0-4.142-3.357-7.5-7.5-7.5H173.167c-4.143,0-7.5,3.358-7.5,7.5v17.35h-9.066c-4.143,0-7.5,3.358-7.5,7.5v33.917H24.067
		C10.797,74.549,0,85.345,0,98.616v298.199c0,13.271,10.797,24.067,24.067,24.067h174.734l0.001,34.701h-58.768
		c-4.143,0-7.5,3.358-7.5,7.5v25.634h-9.066c-4.143,0-7.5,3.358-7.5,7.5s3.357,7.5,7.5,7.5h265.066c4.143,0,7.5-3.358,7.5-7.5
		s-3.357-7.5-7.5-7.5h-9.066v-25.634c0-4.142-3.357-7.5-7.5-7.5H313.2v-34.701h174.733c13.271,0,24.066-10.796,24.066-24.067V98.616
		C512,85.345,501.204,74.549,487.934,74.549z M364.468,488.715H147.534v-18.133h58.74c0.01,0,0.019,0.001,0.029,0.001H305.7
		c0.01,0,0.019-0.001,0.029-0.001h58.738L364.468,488.715L364.468,488.715z M213.803,455.582l-0.001-34.7H298.2v34.7H213.803z
		 M115.967,123.464v17.35H39.85v-26.415h77.896C116.602,117.199,115.967,120.258,115.967,123.464z M39.85,155.814h76.117v108.468
		c0,13.271,10.796,24.067,24.066,24.067h231.935c13.271,0,24.067-10.796,24.067-24.067V155.814h76.115v158.949H39.85V155.814z
		 M472.15,140.814h-76.115v-26.415h76.115V140.814z M381.035,82.048v182.234c0,5-4.067,9.067-9.067,9.067H140.033
		c-4.999,0-9.066-4.067-9.066-9.067V123.464c0-4.99,4.052-9.049,9.038-9.065h15.563c0.01,0,0.019-0.002,0.029-0.002h116.971
		c2.278,0,4.434-1.036,5.856-2.815l30.881-38.601h62.663C376.968,72.981,381.035,77.049,381.035,82.048z M180.667,23.282H347.9v34.7
		h-9.85v-17.35c0-4.142-3.357-7.5-7.5-7.5H180.667V23.282z M323.051,48.132v9.85H305.7c-2.278,0-4.434,1.036-5.856,2.815
		l-30.881,38.601H164.101V48.132H323.051z M24.067,89.549H149.1v9.849h-9.067c-0.019,0-0.038,0.002-0.058,0.002H32.35
		c-4.143,0-7.5,3.358-7.5,7.5v215.365c0,4.142,3.358,7.5,7.5,7.5h447.3c4.143,0,7.5-3.358,7.5-7.5V106.899
		c0-4.142-3.357-7.5-7.5-7.5h-83.615v-9.85h91.898c4.999,0,9.066,4.067,9.066,9.067v240.998H15V98.616
		C15,93.616,19.067,89.549,24.067,89.549z M487.934,405.881H24.067c-5,0-9.067-4.067-9.067-9.067v-42.201h482v42.201
		C497,401.814,492.933,405.881,487.934,405.881z"/>
	<path style="fill:#121212;" d="M256.001,360.32c-10.987,0-19.926,8.939-19.926,19.926s8.939,19.926,19.926,19.926
		s19.927-8.939,19.927-19.926S266.988,360.32,256.001,360.32z M256.001,385.172c-2.716,0-4.926-2.21-4.926-4.926
		s2.21-4.926,4.926-4.926c2.717,0,4.927,2.21,4.927,4.926S258.718,385.172,256.001,385.172z"/>
	<path style="fill:#121212;" d="M57.201,135.106h16.567c4.143,0,7.5-3.358,7.5-7.5c0-4.142-3.357-7.5-7.5-7.5H57.201
		c-4.143,0-7.5,3.358-7.5,7.5C49.701,131.748,53.059,135.106,57.201,135.106z"/>
</g>
<g>
</g>
<g>
</g>
<g>
</g>
<g>
</g>
<g>
</g>
<g>
</g>
<g>
</g>
<g>
</g>
<g>
</g>
<g>
</g>
<g>
</g>
<g>
</g>
<g>
</g>
<g>
</g>
<g>
</g>
</svg>
