<?xml version="1.0" encoding="iso-8859-1"?>
<!-- Generator: Adobe Illustrator 19.0.0, SVG Export Plug-In . SVG Version: 6.00 Build 0)  -->
<svg version="1.1" id="Capa_1" xmlns="http://www.w3.org/2000/svg" xmlns:xlink="http://www.w3.org/1999/xlink" x="0px" y="0px"
	 viewBox="0 0 512.002 512.002" style="enable-background:new 0 0 512.002 512.002;" xml:space="preserve">
<polygon style="fill:#CD91A5;" points="472.448,296.081 392.285,255.999 392.285,231.95 472.448,231.95 "/>
<rect x="392.29" y="231.949" style="fill:#BE788C;" width="80.16" height="24.05"/>
<path style="fill:#E8F7FF;" d="M392.285,239.967h80.163c4.427,0,8.016-3.589,8.016-8.016v-16.033c0-4.427-3.589-8.016-8.016-8.016
	h-80.163V239.967z"/>
<polygon style="fill:#BE788C;" points="392.286,183.848 344.188,143.767 296.09,183.848 296.09,239.967 392.286,255.999 "/>
<path style="fill:#AA6478;" d="M296.09,183.848v22.637c2.114-0.751,4.14-1.761,6-3.098l42.098-30.07l42.138,30.098
	c1.845,1.322,3.858,2.321,5.96,3.066v-22.634l-48.098-40.082L296.09,183.848z"/>
<path style="fill:#E8F7FF;" d="M264.024,239.967c0,0-40.082-40.082-88.18-40.082c-40.082,0-128.262,72.147-168.343,88.179v104.212
	L264.024,239.967z"/>
<polygon style="fill:#FFD787;" points="175.845,223.934 127.747,183.852 79.649,223.934 79.649,352.195 175.845,288.064 "/>
<path style="fill:#D2F0FF;" d="M68.935,344.179H26.232c-1.37,0-2.376-1.288-2.043-2.617l21.351-85.405
	c0.532-2.127,3.555-2.127,4.087,0l21.351,85.405C71.31,342.891,70.305,344.179,68.935,344.179z"/>
<path style="fill:#E8F7FF;" d="M269.525,249.294h-59.1c-1.285,0-2.233-1.198-1.939-2.448l29.55-125.588
	c0.482-2.048,3.396-2.048,3.878,0l29.55,125.588C271.759,248.096,270.81,249.294,269.525,249.294z"/>
<path style="fill:#D2F0FF;" d="M239.197,119.971c-0.53,0.225-0.998,0.595-1.161,1.286l-29.55,125.588
	c-0.294,1.25,0.655,2.448,1.939,2.448h21.764L239.197,119.971z"/>
<path style="fill:#E8F7FF;" d="M325.64,272.032h-59.1c-1.285,0-2.233-1.198-1.939-2.448l29.55-125.588
	c0.482-2.048,3.396-2.048,3.878,0l29.55,125.588C327.873,270.834,326.924,272.032,325.64,272.032z"/>
<path style="fill:#D2F0FF;" d="M295.311,142.709c-0.53,0.225-0.998,0.595-1.161,1.286L264.6,269.583
	c-0.294,1.25,0.655,2.448,1.939,2.448h21.764L295.311,142.709z"/>
<path style="fill:#FFC850;" d="M79.649,223.934v22.637c2.114-0.751,4.14-1.761,6-3.098l42.098-30.07l42.138,30.098
	c1.845,1.322,3.858,2.321,5.96,3.066v-22.634l-48.098-40.082L79.649,223.934z"/>
<path d="M508.779,320.318c-7.881-5.47-15.495-10.868-22.857-16.087c-2.008-1.423-3.995-2.831-5.973-4.231v-52.533h0.516
	c4.142,0,7.5-3.358,7.5-7.5v-32.065c0-4.142-3.358-7.5-7.5-7.5h-80.679v-9.087c0.17,0.012,0.34,0.039,0.51,0.039
	c2.34,0,4.646-1.092,6.109-3.141c2.408-3.371,1.627-8.055-1.744-10.462l-56.114-40.082c-2.608-1.862-6.111-1.862-8.719,0
	l-30.464,21.76l-5.974-25.391c-0.797-3.388-3.82-5.782-7.301-5.782s-6.503,2.395-7.301,5.782l-18.184,77.281l-23.354-93.415
	c-0.834-3.339-3.834-5.681-7.276-5.681s-6.441,2.342-7.276,5.681l-20.068,80.275c-11.747-3.889-23.854-5.794-36.786-5.794
	c-7.245,0-14.074,0.577-20.792,1.755l-22.947-16.391c-2.608-1.862-6.11-1.862-8.719,0l-56.114,40.082
	c-3.371,2.408-4.151,7.092-1.744,10.462c1.57,2.198,4.108,3.286,6.62,3.115v7.334c-5.33,3.938-10.698,7.847-16.216,11.716
	l-1.073-4.294c-0.834-3.339-3.834-5.681-7.276-5.681s-6.441,2.342-7.276,5.681l-4.393,17.573
	c-9.654,6.011-20.049,11.89-31.706,17.59c-3.721,1.819-5.263,6.311-3.444,10.032c1.301,2.661,3.968,4.208,6.743,4.208
	c1.105,0,2.229-0.245,3.289-0.764c7.089-3.466,13.71-6.986,19.99-10.552l-14.527,58.11c-0.561,2.24-0.057,4.614,1.364,6.435
	s3.602,2.884,5.912,2.884h16.549v15.751c-11.219,6.103-23.094,12.142-35.753,18.05c-3.753,1.751-5.376,6.214-3.625,9.968
	c1.273,2.728,3.978,4.33,6.801,4.33c1.062,0,2.141-0.227,3.167-0.706C68.62,372.031,110.261,342.511,147,316.466
	c30.193-21.404,56.631-40.12,85.475-52.628v8.193c0,4.142,3.358,7.5,7.5,7.5s7.5-3.358,7.5-7.5v-16.549h12.738l-3.49,14.831
	c-0.524,2.23-0.001,4.578,1.421,6.375c1.423,1.796,3.588,2.843,5.879,2.843h24.565v32.582c0,4.142,3.358,7.5,7.5,7.5
	s7.5-3.358,7.5-7.5v-32.582h24.565c2.291,0,4.457-1.047,5.879-2.843s1.946-4.144,1.421-6.375l-5.198-22.092
	c57.553,4.857,97.234,32.973,146.989,68.246c7.393,5.241,15.037,10.66,22.979,16.172c1.304,0.905,2.794,1.339,4.27,1.339
	c2.375,0,4.711-1.125,6.168-3.224C513.025,327.354,512.181,322.68,508.779,320.318z M175.845,207.385
	c11.865,0,22.537,1.729,33.137,5.39l-8.347,33.39c-0.561,2.24-0.057,4.614,1.364,6.435s3.602,2.884,5.912,2.884h6.946
	c-10.687,5.293-21.085,11.325-31.511,17.938v-42.025c0.17,0.012,0.34,0.039,0.51,0.039c2.34,0,4.646-1.092,6.109-3.141
	c2.408-3.371,1.627-8.055-1.744-10.462l-14.589-10.421C174.365,207.396,175.1,207.385,175.845,207.385z M72.149,257.328v57.995
	l-12.326-49.305C64.02,263.141,68.114,260.243,72.149,257.328z M33.14,336.679l14.443-57.772l14.443,57.772h-6.943v-0.517
	c0-4.142-3.358-7.5-7.5-7.5s-7.5,3.358-7.5,7.5v0.517H33.14z M55.083,351.679h12.403c-4.043,2.448-8.177,4.895-12.403,7.336V351.679
	z M138.324,304.23c-15.833,11.225-32.59,23.104-51.176,35.132V222.067l40.598-28.998l40.28,28.771l0.309,61.431
	C158.586,289.869,148.672,296.894,138.324,304.23z M239.975,224.45c-4.142,0-7.5,3.358-7.5,7.5v8.533h-14.959l22.459-89.838
	l22.273,89.092c0.063,0.255,0.14,0.504,0.228,0.746h-15.001v-8.533C247.475,227.808,244.117,224.45,239.975,224.45z
	 M472.965,215.401v17.065h-8.532c-4.142,0-7.5,3.358-7.5,7.5s3.358,7.5,7.5,7.5h0.516v42.003
	c-22.039-15.293-42.849-28.65-65.163-38.58v-3.422h32.582c4.142,0,7.5-3.358,7.5-7.5s-3.358-7.5-7.5-7.5h-32.582v-17.065h73.179
	V215.401z M303.589,264.532v-8.533c0-4.142-3.358-7.5-7.5-7.5s-7.5,3.358-7.5,7.5v8.533h-15.095l22.595-96.032l22.596,96.032
	H303.589z M321.643,211.614c1.292,2.26,3.721,3.787,6.511,3.787c4.142,0,7.5-3.358,7.5-7.5v-8.016c0-4.142-3.358-7.5-7.5-7.5
	s-7.5,3.358-7.5,7.5v7.526l-7.577-32.202l31.11-22.221l40.598,28.999v62.855c-17.717-6.401-36.689-10.586-58.127-11.913
	L321.643,211.614z"/>
<path d="M360.22,192.385c-4.142,0-7.5,3.358-7.5,7.5v8.016c0,4.142,3.358,7.5,7.5,7.5s7.5-3.358,7.5-7.5v-8.016
	C367.72,195.743,364.362,192.385,360.22,192.385z"/>
<path d="M111.714,232.466c-4.142,0-7.5,3.358-7.5,7.5v8.017c0,4.142,3.358,7.5,7.5,7.5s7.5-3.358,7.5-7.5v-8.017
	C119.214,235.824,115.856,232.466,111.714,232.466z"/>
<path d="M143.779,232.466c-4.142,0-7.5,3.358-7.5,7.5v8.017c0,4.142,3.358,7.5,7.5,7.5s7.5-3.358,7.5-7.5v-8.017
	C151.279,235.824,147.921,232.466,143.779,232.466z"/>
<path d="M111.714,272.548c-4.142,0-7.5,3.358-7.5,7.5v8.017c0,4.142,3.358,7.5,7.5,7.5s7.5-3.358,7.5-7.5v-8.017
	C119.214,275.906,115.856,272.548,111.714,272.548z"/>
<path d="M143.779,272.548c-4.142,0-7.5,3.358-7.5,7.5v8.017c0,4.142,3.358,7.5,7.5,7.5s7.5-3.358,7.5-7.5v-8.017
	C151.279,275.906,147.921,272.548,143.779,272.548z"/>
<g>
</g>
<g>
</g>
<g>
</g>
<g>
</g>
<g>
</g>
<g>
</g>
<g>
</g>
<g>
</g>
<g>
</g>
<g>
</g>
<g>
</g>
<g>
</g>
<g>
</g>
<g>
</g>
<g>
</g>
</svg>
