<?xml version="1.0" encoding="iso-8859-1"?>
<!-- Generator: Adobe Illustrator 19.0.0, SVG Export Plug-In . SVG Version: 6.00 Build 0)  -->
<svg version="1.1" id="Capa_1" xmlns="http://www.w3.org/2000/svg" xmlns:xlink="http://www.w3.org/1999/xlink" x="0px" y="0px"
	 viewBox="0 0 511.999 511.999" style="enable-background:new 0 0 511.999 511.999;" xml:space="preserve">
<rect x="206.3" y="407.999" style="fill:#ABBACD;" width="99.4" height="60.47"/>
<rect x="206.3" y="407.999" style="fill:#91A4B6;" width="99.4" height="27.383"/>
<path style="fill:#BAC7D9;" d="M487.934,82.049c9.15,0,16.567,7.417,16.567,16.567v298.199c0,9.15-7.417,16.567-16.567,16.567
	H24.068c-9.15,0-16.567-7.417-16.567-16.567V98.616c0-9.15,7.417-16.567,16.567-16.567C24.068,82.049,487.934,82.049,487.934,82.049
	z"/>
<path style="fill:#A5B5CC;" d="M487.934,82.049h-21.999c9.15,0,16.567,7.417,16.567,16.567v298.199
	c0,9.15-7.417,16.567-16.567,16.567h21.999c9.15,0,16.567-7.417,16.567-16.567V98.616C504.501,89.466,497.084,82.049,487.934,82.049
	z"/>
<circle style="fill:#D7DCF2;" cx="256" cy="380.249" r="12.426"/>
<path style="fill:#474855;" d="M504.501,347.114V98.616c0-9.15-7.417-16.567-16.567-16.567H24.068
	c-9.15,0-16.567,7.417-16.567,16.567v248.498H504.501z"/>
<path style="fill:#3C3C47;" d="M487.934,82.049h-22c9.15,0,16.567,7.417,16.567,16.567v248.498h22V98.616
	C504.501,89.466,497.084,82.049,487.934,82.049z"/>
<path style="fill:#FFFFFF;" d="M32.351,112.899v203.365c0,3.314,2.686,6,6,6h435.301c3.314,0,6-2.686,6-6V112.899
	c0-3.314-2.686-6-6-6H38.351C35.037,106.899,32.351,109.585,32.351,112.899z"/>
<path style="fill:#FF5A6A;" d="M479.649,148.314H32.351v-35.415c0-3.314,2.686-6,6-6h435.3c3.314,0,6,2.687,6,6L479.649,148.314z"/>
<path style="fill:#BAC7D9;" d="M365.968,496.215H146.035c-3.314,0-6-2.686-6-6v-21.133c0-3.314,2.686-6,6-6h219.933
	c3.314,0,6,2.686,6,6v21.133C371.968,493.529,369.282,496.215,365.968,496.215z"/>
<path style="fill:#A5B5CC;" d="M365.968,463.082h-22c3.314,0,6,2.686,6,6v21.133c0,3.314-2.686,6-6,6h22c3.314,0,6-2.686,6-6
	v-21.133C371.968,465.768,369.282,463.082,365.968,463.082z"/>
<path style="fill:#BAC7D9;" d="M367.588,116.662c-2.46-8.692-5.908-16.968-10.215-24.701c-1.124-2.018-0.977-4.501,0.365-6.381
	l6.558-9.181c1.705-2.387,1.434-5.656-0.64-7.73L335.7,40.714c-2.074-2.074-5.343-2.345-7.73-0.64l-9.162,6.545
	c-1.881,1.343-4.367,1.489-6.385,0.363c-7.707-4.3-15.956-7.746-24.619-10.211c-2.22-0.632-3.87-2.493-4.25-4.769l-1.868-11.206
	c-0.482-2.893-2.985-5.014-5.918-5.014h-39.536c-2.933,0-5.436,2.12-5.918,5.014l-1.868,11.206
	c-0.379,2.277-2.031,4.138-4.251,4.769c-8.626,2.454-16.841,5.882-24.52,10.157c-2.018,1.123-4.501,0.977-6.38-0.365l-9.34-6.672
	c-2.387-1.705-5.656-1.434-7.73,0.64L148.27,68.486c-2.074,2.074-2.345,5.343-0.64,7.73l6.658,9.321
	c1.343,1.881,1.489,4.366,0.363,6.385c-4.268,7.654-7.694,15.842-10.153,24.438c-0.634,2.216-2.493,3.864-4.767,4.243l-11.38,1.897
	c-2.893,0.482-5.014,2.985-5.014,5.918v39.536c0,2.933,2.12,5.436,5.014,5.918l11.304,1.884c2.279,0.38,4.141,2.034,4.771,4.257
	c2.439,8.602,5.845,16.797,10.095,24.46c1.118,2.017,0.97,4.496-0.37,6.372l-6.704,9.386c-1.705,2.387-1.434,5.656,0.64,7.73
	l27.956,27.956c2.074,2.074,5.343,2.345,7.73,0.64l9.274-6.625c1.883-1.345,4.373-1.489,6.393-0.358
	c7.671,4.294,15.879,7.74,24.499,10.215c2.213,0.635,3.858,2.494,4.237,4.765l1.88,11.281c0.482,2.893,2.985,5.014,5.918,5.014
	h39.535c2.933,0,5.436-2.121,5.918-5.014l1.855-11.13c0.38-2.281,2.038-4.145,4.264-4.773c8.668-2.445,16.924-5.871,24.641-10.153
	c2.016-1.119,4.496-0.971,6.372,0.37l9.227,6.591c2.387,1.705,5.656,1.434,7.73-0.64l27.956-27.956
	c2.074-2.074,2.345-5.343,0.64-7.73l-6.511-9.116c-1.345-1.884-1.489-4.374-0.358-6.393c4.326-7.724,7.792-15.993,10.273-24.679
	c0.633-2.217,2.493-3.865,4.767-4.244l11.108-1.851c2.893-0.482,5.014-2.985,5.014-5.918v-39.536c0-2.933-2.12-5.436-5.014-5.918
	l-11.032-1.839C370.08,120.54,368.217,118.885,367.588,116.662z M285.61,179.203c-43.905,32.486-92.983-16.592-60.496-60.496
	c0.358-0.484,0.795-0.921,1.279-1.279c43.904-32.485,92.981,16.592,60.496,60.497C286.531,178.408,286.094,178.845,285.61,179.203z"
	/>
<path style="fill:#A5B5CC;" d="M256.001,73.765c-41.173,0-74.55,33.377-74.55,74.55s33.377,74.55,74.55,74.55
	s74.55-33.377,74.55-74.55C330.551,107.142,297.174,73.765,256.001,73.765z M256.001,189.732c-22.874,0-41.417-18.543-41.417-41.417
	s18.543-41.417,41.417-41.417s41.417,18.543,41.417,41.417S278.875,189.732,256.001,189.732z"/>
<g>
	<path style="fill:#121212;" d="M487.934,74.549H374.387c0.837-2.615,0.196-5.559-1.834-7.588L337.41,31.816
		c-2.592-2.593-6.679-2.931-9.663-0.8l-12.522,8.944c-7.764-4.251-15.946-7.646-24.43-10.132l-2.546-15.279
		c-0.602-3.617-3.731-6.267-7.398-6.267H231.15c-3.667,0-6.795,2.65-7.398,6.267l-2.546,15.279
		c-8.445,2.476-16.593,5.851-24.327,10.077l-12.7-9.072c-2.985-2.132-7.071-1.793-9.663,0.8l-35.144,35.144
		c-2.077,2.077-2.703,5.112-1.776,7.771H24.067C10.796,74.549,0,85.345,0,98.616v298.199c0,13.271,10.796,24.067,24.067,24.067
		h174.735l0.001,34.701h-58.768c-4.142,0-7.5,3.358-7.5,7.5v25.634h-9.066c-4.142,0-7.5,3.358-7.5,7.5s3.358,7.5,7.5,7.5h265.065
		c4.142,0,7.5-3.358,7.5-7.5s-3.358-7.5-7.5-7.5h-9.066v-25.634c0-4.142-3.358-7.5-7.5-7.5H313.2v-34.701h174.733
		c13.27,0,24.066-10.796,24.066-24.067V98.616C512,85.345,501.204,74.549,487.934,74.549z M364.467,488.715H147.535v-18.133h58.739
		c0.01,0,0.019,0.001,0.029,0.001H305.7c0.01,0,0.019-0.001,0.029-0.001h58.738V488.715z M213.803,455.582l-0.001-34.7h84.399v34.7
		H213.803z M122.105,115.937c-3.616,0.602-6.267,3.731-6.267,7.398v17.479H39.85v-26.415h91.486L122.105,115.937z M39.85,155.814
		h75.988v17.222c0,3.667,2.65,6.795,6.267,7.398l15.376,2.563c2.459,8.42,5.814,16.548,10.014,24.263l-9.106,12.748
		c-2.131,2.983-1.793,7.07,0.8,9.663l35.144,35.144c2.593,2.593,6.678,2.931,9.663,0.8l12.632-9.023
		c7.724,4.244,15.866,7.639,24.306,10.134l2.56,15.357c0.603,3.617,3.731,6.267,7.398,6.267h49.701c3.667,0,6.795-2.65,7.398-6.267
		l2.534-15.2c8.487-2.467,16.678-5.842,24.451-10.076l12.589,8.992c2.983,2.131,7.07,1.792,9.663-0.8l35.144-35.144
		c2.593-2.592,2.931-6.679,0.8-9.663l-8.91-12.474c4.277-7.779,7.692-15.984,10.195-24.494l15.182-2.53
		c3.617-0.603,6.267-3.731,6.267-7.398v-17.48h76.246v158.949H39.85V155.814z M472.151,140.814h-76.246v-17.22
		c0-3.666-2.65-6.795-6.267-7.398l-10.785-1.797h93.298V140.814z M180.63,46.732l11.443,8.173c2.43,1.735,5.657,1.865,8.218,0.329
		c9.145-5.486,19.016-9.575,29.34-12.153c2.897-0.724,5.09-3.098,5.581-6.043l2.292-13.756h36.994l2.293,13.756
		c0.491,2.946,2.683,5.32,5.581,6.043c10.36,2.588,20.263,6.695,29.432,12.208c2.562,1.54,5.792,1.412,8.224-0.325l11.269-8.049
		l26.159,26.159l-8.061,11.285c-1.736,2.43-1.864,5.659-0.328,8.219c5.52,9.195,9.626,19.125,12.205,29.514
		c0.721,2.902,3.097,5.099,6.046,5.591l13.588,2.265v36.994l-13.654,2.276c-2.943,0.491-5.316,2.679-6.042,5.573
		c-2.605,10.386-6.735,20.307-12.275,29.486c-1.547,2.563-1.422,5.799,0.318,8.235l8.02,11.228l-26.159,26.159l-11.326-8.089
		c-2.427-1.733-5.65-1.864-8.208-0.334c-9.183,5.491-19.095,9.574-29.459,12.136c-2.906,0.718-5.106,3.095-5.598,6.048
		l-2.282,13.689h-36.994l-2.304-13.821c-0.49-2.939-2.674-5.31-5.563-6.039c-10.319-2.604-20.181-6.717-29.313-12.225
		c-2.562-1.545-5.798-1.42-8.233,0.319l-11.385,8.132l-26.159-26.159l8.203-11.483c1.733-2.426,1.864-5.648,0.335-8.207
		c-5.457-9.131-9.523-18.984-12.084-29.286c-0.721-2.901-3.097-5.097-6.045-5.588l-13.858-2.31v-36.994l13.924-2.32
		c2.942-0.49,5.314-2.678,6.041-5.57c2.586-10.294,6.676-20.138,12.156-29.259c1.539-2.561,1.411-5.791-0.326-8.222l-8.162-11.426
		L180.63,46.732z M24.067,89.549h123.336c-1.743,3.214-3.334,6.502-4.781,9.85H32.35c-4.142,0-7.5,3.358-7.5,7.5v215.364
		c0,4.142,3.358,7.5,7.5,7.5h447.301c4.142,0,7.5-3.358,7.5-7.5V106.899c0-4.142-3.358-7.5-7.5-7.5H369.378
		c-1.446-3.348-3.037-6.636-4.78-9.85h123.335c4.999,0,9.066,4.067,9.066,9.067v240.998H15V98.616
		C15,93.616,19.067,89.549,24.067,89.549z M487.934,405.881H24.067c-5,0-9.067-4.067-9.067-9.067v-42.201h482v42.201
		C497,401.814,492.933,405.881,487.934,405.881z"/>
	<path style="fill:#121212;" d="M256.001,360.32c-10.987,0-19.926,8.939-19.926,19.926s8.939,19.926,19.926,19.926
		s19.926-8.939,19.926-19.926S266.989,360.32,256.001,360.32z M256.001,385.172c-2.716,0-4.926-2.21-4.926-4.926
		s2.21-4.926,4.926-4.926c2.716,0,4.926,2.21,4.926,4.926S258.718,385.172,256.001,385.172z"/>
	<path style="fill:#121212;" d="M73.767,120.106H57.201c-4.142,0-7.5,3.358-7.5,7.5s3.358,7.5,7.5,7.5h16.566
		c4.142,0,7.5-3.358,7.5-7.5C81.267,123.464,77.909,120.106,73.767,120.106z"/>
	<path style="fill:#121212;" d="M256.001,197.232c26.973,0,48.916-21.944,48.916-48.916c0-26.973-21.944-48.917-48.916-48.917
		c-26.973,0-48.917,21.944-48.917,48.917C207.084,175.288,229.028,197.232,256.001,197.232z M256.001,182.232
		c-16.124,0-29.646-11.313-33.07-26.416h66.141C285.647,170.919,272.125,182.232,256.001,182.232z M256.001,114.398
		c16.124,0,29.647,11.313,33.07,26.417H222.93C226.354,125.712,239.877,114.398,256.001,114.398z"/>
	<path style="fill:#121212;" d="M256.001,230.365c45.243,0,82.05-36.808,82.05-82.05c0-45.243-36.808-82.05-82.05-82.05
		c-45.243,0-82.05,36.808-82.05,82.05C173.951,193.558,210.758,230.365,256.001,230.365z M256.001,81.265
		c36.972,0,67.05,30.079,67.05,67.05s-30.079,67.05-67.05,67.05s-67.05-30.079-67.05-67.05
		C188.951,111.344,219.029,81.265,256.001,81.265z"/>
</g>
<g>
</g>
<g>
</g>
<g>
</g>
<g>
</g>
<g>
</g>
<g>
</g>
<g>
</g>
<g>
</g>
<g>
</g>
<g>
</g>
<g>
</g>
<g>
</g>
<g>
</g>
<g>
</g>
<g>
</g>
</svg>
